<svg width="199" height="50" viewBox="0 0 199 50" fill="none" xmlns="http://www.w3.org/2000/svg">
<path fill-rule="evenodd" clip-rule="evenodd" d="M24.6967 50C38.3362 50 49.3934 38.8066 49.3934 25C49.3934 11.193 38.3358 0 24.6967 0C11.0572 0 0 11.1934 0 25C0 38.807 11.0576 50 24.6967 50Z" fill="#D41443"/>
<path fill-rule="evenodd" clip-rule="evenodd" d="M13.1378 23.0921H36.2593V22.1453C36.2593 19.8062 35.9214 17.6756 35.2441 15.8402C32.3155 18.0344 28.5867 19.1777 24.8744 19.1838C21.0509 19.1893 17.2273 17.994 14.2791 15.5072C13.5155 17.415 13.1348 19.6642 13.1348 22.1449V23.0917H13.1378V23.0921ZM33.9136 13.2464C33.6846 12.9134 33.436 12.5981 33.173 12.3C31.2943 10.1807 28.48 8.93624 24.6968 8.93624C20.9136 8.93624 18.0993 10.1807 16.2207 12.3C16.0401 12.5056 15.8658 12.7199 15.7001 12.9401C18.1567 15.2178 21.5056 16.3125 24.8744 16.3065C28.1545 16.3009 31.4346 15.2526 33.9141 13.2464H33.9136ZM33.0043 43.9553V48.5498C32.0783 48.8853 31.1256 49.1662 30.1504 49.3895V43.9553H19.4837V49.4415C18.5085 49.2303 17.5562 48.9606 16.6299 48.6371V43.9588H16.3953C14.7139 43.9588 13.1866 43.2641 12.0797 42.144V42.138C10.9732 41.0178 10.2869 39.4719 10.2869 37.7728V31.1691C9.33207 31.0796 8.47073 30.6482 7.83035 29.9999C7.10711 29.2674 6.65796 28.2574 6.65796 27.1429C6.65796 26.0309 7.10711 25.0235 7.83035 24.2914L7.8363 24.2858C8.47965 23.6375 9.33759 23.2057 10.2869 23.1162V22.1522C10.2869 17.39 11.5451 13.2795 14.1075 10.3876C16.5296 7.65482 20.0502 6.05078 24.7028 6.05078C29.3532 6.05078 32.8759 7.65482 35.2981 10.3876C37.8604 13.2795 39.1186 17.39 39.1186 22.1522V23.1162C40.0739 23.2057 40.9348 23.6375 41.5752 24.2858C42.2984 25.0179 42.748 26.0283 42.748 27.1429C42.748 28.2518 42.2989 29.2588 41.5752 29.9939L41.5697 29.9999C40.9263 30.6512 40.0684 31.08 39.1186 31.1691V37.7728C39.1186 39.4749 38.4328 41.0208 37.3259 42.1414C36.2189 43.2615 34.6917 43.9562 33.0102 43.9562H33.0043V43.9553ZM36.2593 31.1833H33.9829V33.7913C33.9829 35.0736 33.4653 36.2376 32.6333 37.0798C31.8013 37.922 30.6484 38.4464 29.3847 38.4464C28.1175 38.4464 26.9677 37.922 26.1356 37.0798C25.3036 36.2376 24.7861 35.071 24.7861 33.7913V31.1833H13.1412V37.7689C13.1412 38.6752 13.507 39.5003 14.0964 40.0995L14.0994 40.0964C14.6884 40.6931 15.5034 41.0664 16.3987 41.0664H33.0081C33.9 41.0664 34.7155 40.6961 35.307 40.0964C35.8964 39.5003 36.2652 38.6752 36.2652 37.7689V31.1833H36.2597H36.2593ZM10.3124 25.9986C9.62017 25.9986 9.16549 26.6004 9.16549 27.1386C9.16549 27.6715 9.6002 28.2935 10.2979 28.2935H27.634V33.7909C27.634 34.2748 27.8316 34.717 28.149 35.0387C28.4664 35.36 28.9011 35.5596 29.3813 35.5596C29.8589 35.5596 30.2966 35.36 30.6136 35.0387C30.931 34.717 31.1286 34.2774 31.1286 33.7909V28.2935H36.2618H38.7558C39.1964 28.2935 39.8912 27.9459 39.8912 27.1386C39.8882 26.3484 39.179 25.9986 38.7558 25.9986H10.3154H10.3124V25.9986Z" fill="#FEFEFE"/>
<path fill-rule="evenodd" clip-rule="evenodd" d="M77.5565 34.7665C77.5565 34.9415 77.0768 35.0848 76.1173 35.1966C75.1578 35.2917 74.1902 35.3399 73.2154 35.3399C72.2559 35.3399 71.6427 35.2999 71.375 35.2207C71.1073 35.1252 70.9739 34.9738 70.9739 34.7669V19.9125C70.9739 19.5623 71.4303 19.2199 72.3422 18.8857C73.2545 18.5351 74.2769 18.3605 75.4093 18.3605C76.4156 18.3605 77.0764 18.5751 77.3908 19.0048C77.5009 19.164 77.5561 19.3231 77.5561 19.4827V34.7669L77.5565 34.7665ZM92.2159 35.1721C91.5866 35.3158 90.9419 35.4108 90.2816 35.4586C89.6365 35.5222 88.9996 35.5541 88.3707 35.5541C87.7575 35.5541 87.2777 35.5382 86.9314 35.5059C86.6012 35.4745 86.161 35.3945 85.6103 35.2672C85.0596 35.1398 84.556 34.9648 84.1001 34.7419C83.6441 34.5187 83.1567 34.1931 82.6375 33.7629C82.1343 33.3328 81.7098 32.8239 81.3635 32.2346C80.5612 30.8654 80.1601 29.0984 80.1601 26.9325C80.1601 25.4838 80.3806 24.2019 80.8209 23.0878C81.2772 21.9733 81.8195 21.1139 82.4488 20.5086C83.0934 19.9039 83.8247 19.4178 84.6423 19.0522C85.9634 18.4469 87.2926 18.1445 88.6294 18.1445C90.548 18.1445 91.9244 18.3037 92.7581 18.622C93.135 18.7652 93.4733 18.9881 93.7724 19.2909C94.0711 19.5933 94.2207 20.0312 94.2207 20.6046C94.2207 21.1775 94.0788 21.9023 93.7958 22.7777C93.5285 23.6531 93.135 24.0914 92.6162 24.0914C92.459 24.0914 91.8768 23.9641 90.8705 23.709C89.8639 23.4543 89.1797 23.3274 88.8181 23.3274C88.2678 23.3274 87.7953 23.638 87.4022 24.2587C87.0253 24.8794 86.8362 25.7634 86.8362 26.9097C86.8362 28.0561 87.0015 28.9474 87.3317 29.5849C87.6776 30.2215 88.1255 30.5398 88.6766 30.5398C89.0697 30.5398 89.7772 30.3806 90.7996 30.0619C91.8377 29.7277 92.4432 29.5603 92.6162 29.5603C93.104 29.5603 93.4813 30.0141 93.7486 30.9218C94.0321 31.8294 94.1736 32.5615 94.1736 33.1186C94.1736 33.6756 94.0006 34.1217 93.6547 34.4559C93.3245 34.7742 92.8444 35.0129 92.2155 35.1721H92.2159ZM108.783 35.3394H98.7798C98.0094 35.3394 97.4902 35.2835 97.2229 35.1721C96.9552 35.0607 96.8213 34.8856 96.8213 34.6469V19.5301C96.8213 19.1158 97.0019 18.8216 97.364 18.6465C97.7413 18.471 98.4097 18.3837 99.3696 18.3837H108.853C109.183 18.3837 109.349 18.9407 109.349 20.0553C109.349 21.1539 109.278 21.9978 109.136 22.5867C108.995 23.1597 108.806 23.4466 108.57 23.4466C107.547 23.4466 105.826 23.3429 103.404 23.136V24.7362C105.731 24.6407 107.249 24.5929 107.956 24.5929C108.381 24.5929 108.594 25.0945 108.594 26.0976C108.594 27.1007 108.507 27.8651 108.334 28.3903C108.177 28.9001 107.956 29.1547 107.673 29.1547L103.403 29.0592V30.5875C106.14 30.3806 108.027 30.277 109.065 30.277C109.396 30.277 109.561 30.834 109.561 31.9485C109.561 33.0631 109.49 33.9066 109.348 34.48C109.206 35.0534 109.018 35.3399 108.782 35.3399L108.783 35.3394ZM123.984 35.1721C123.355 35.3158 122.71 35.4108 122.05 35.4586C121.405 35.5222 120.768 35.5541 120.139 35.5541C119.526 35.5541 119.046 35.5382 118.7 35.5059C118.37 35.4745 117.929 35.3945 117.379 35.2672C116.829 35.1398 116.325 34.9648 115.869 34.7419C115.413 34.5187 114.925 34.1931 114.406 33.7629C113.903 33.3328 113.478 32.8239 113.132 32.2346C112.33 30.8654 111.929 29.0984 111.929 26.9325C111.929 25.4838 112.15 24.2019 112.59 23.0878C113.046 21.9733 113.589 21.1139 114.218 20.5086C114.863 19.9039 115.594 19.4178 116.412 19.0522C117.733 18.4469 119.062 18.1445 120.399 18.1445C122.318 18.1445 123.694 18.3037 124.527 18.622C124.904 18.7652 125.243 18.9881 125.542 19.2909C125.84 19.5933 125.99 20.0312 125.99 20.6046C125.99 21.1775 125.849 21.9023 125.565 22.7777C125.298 23.6531 124.904 24.0914 124.386 24.0914C124.229 24.0914 123.647 23.9641 122.64 23.709C121.634 23.4543 120.949 23.3274 120.587 23.3274C120.037 23.3274 119.565 23.638 119.172 24.2587C118.794 24.8794 118.606 25.7634 118.606 26.9097C118.606 28.0561 118.771 28.9474 119.101 29.5849C119.447 30.2215 119.896 30.5398 120.446 30.5398C120.839 30.5398 121.547 30.3806 122.569 30.0619C123.607 29.7277 124.213 29.5603 124.386 29.5603C124.874 29.5603 125.251 30.0141 125.518 30.9218C125.801 31.8294 125.943 32.5615 125.943 33.1186C125.943 33.6756 125.77 34.1217 125.424 34.4559C125.094 34.7742 124.614 35.0129 123.985 35.1721H123.984ZM135.196 34.6469C135.196 34.8534 134.716 35.0207 133.757 35.1484C132.798 35.2758 131.83 35.3394 130.855 35.3394C129.896 35.3394 129.275 35.2835 128.992 35.1721C128.724 35.0607 128.59 34.8856 128.59 34.6469V19.2909C128.59 18.8771 129.102 18.5824 130.124 18.4074C131.162 18.2323 132.467 18.145 134.04 18.145C135.613 18.145 136.627 18.1527 137.083 18.1686C137.555 18.1686 138.106 18.1923 138.735 18.2405C139.364 18.2878 139.859 18.3678 140.221 18.4792C140.598 18.5906 141.007 18.7338 141.448 18.9085C141.904 19.0836 142.258 19.315 142.51 19.601C142.761 19.872 143.005 20.1985 143.241 20.5801C143.666 21.2649 143.878 22.2439 143.878 23.5176C143.878 24.7749 143.666 25.8421 143.241 26.7179C142.832 27.5773 142.282 28.2303 141.589 28.6759C143.398 31.5575 144.302 33.3883 144.302 34.1686C144.302 34.9484 142.753 35.3386 139.655 35.3386C138.758 35.3386 138.137 35.2986 137.791 35.2194C137.445 35.1398 137.225 34.9643 137.13 34.6938L135.597 29.7741L135.196 29.7505V34.6465L135.196 34.6469ZM135.196 26.0735H135.809C136.722 26.0735 137.178 25.3573 137.178 23.9241C137.178 23.1919 137.052 22.6745 136.8 22.3721C136.565 22.0692 136.289 21.9183 135.975 21.9183H135.196V26.0735V26.0735ZM158.383 35.3394H148.38C147.609 35.3394 147.09 35.2835 146.823 35.1721C146.555 35.0607 146.421 34.8856 146.421 34.6469V19.5301C146.421 19.1158 146.603 18.8216 146.964 18.6465C147.341 18.471 148.01 18.3837 148.97 18.3837H158.453C158.783 18.3837 158.949 18.9407 158.949 20.0553C158.949 21.1539 158.878 21.9978 158.736 22.5867C158.595 23.1597 158.406 23.4466 158.17 23.4466C157.148 23.4466 155.426 23.3429 153.003 23.136V24.7362C155.331 24.6407 156.849 24.5929 157.557 24.5929C157.981 24.5929 158.194 25.0945 158.194 26.0976C158.194 27.1007 158.107 27.8651 157.934 28.3903C157.777 28.9001 157.557 29.1547 157.274 29.1547L153.003 29.0592V30.5875C155.74 30.3806 157.628 30.277 158.666 30.277C158.996 30.277 159.161 30.834 159.161 31.9485C159.161 33.0631 159.09 33.9066 158.949 34.48C158.807 35.0534 158.619 35.3399 158.383 35.3399V35.3394ZM168.276 34.1212C168.244 34.5828 168.001 34.9015 167.544 35.0762C167.104 35.2512 166.302 35.339 165.138 35.339C163.974 35.339 163 35.2353 162.213 35.0284C161.443 34.806 161.057 34.5273 161.057 34.1931C161.057 33.8102 161.757 31.3747 163.157 26.8852C164.556 22.3798 165.358 19.7847 165.563 19.0999C165.641 18.893 166.27 18.7257 167.45 18.5983C168.645 18.4547 169.919 18.3833 171.272 18.3833C172.64 18.3833 173.395 18.622 173.537 19.0995C176.51 29.0979 177.996 34.1767 177.996 34.3359C177.996 34.495 177.901 34.6542 177.713 34.8134C177.272 35.1639 176.399 35.339 175.094 35.339C172.31 35.339 170.886 35.0048 170.824 34.3359L170.659 32.7835H168.394L168.276 34.1208V34.1212ZM170.164 28.2466L169.809 23.9477H169.29L168.889 28.2466H170.163H170.164ZM183.759 35.3394C183.365 35.3394 182.792 35.3394 182.037 35.3394C181.298 35.3394 180.794 35.2835 180.527 35.1721C180.26 35.0607 180.126 34.8856 180.126 34.6469V19.5774C180.126 19.2113 180.605 18.9248 181.565 18.7179C182.54 18.4947 183.578 18.3837 184.679 18.3837C185.78 18.3837 186.567 18.5269 187.039 18.8138C187.51 19.1003 187.786 19.4027 187.864 19.721L189.468 26.0258H189.681L191.191 20.0079C191.301 19.5778 191.812 19.204 192.724 18.8857C193.652 18.5515 194.667 18.3841 195.768 18.3841C196.869 18.3841 197.678 18.4714 198.197 18.6469C198.733 18.822 199 19.0448 199 19.3158V34.6477C199 34.8542 198.552 35.0215 197.656 35.1493C196.759 35.2766 195.666 35.3403 194.376 35.3403C193.086 35.3403 192.442 35.1093 192.442 34.6477C192.442 33.3895 192.576 31.1528 192.843 27.9369H192.63L191.403 34.1703C191.356 34.409 191.16 34.5836 190.814 34.6955C190.484 34.8073 189.981 34.8632 189.304 34.8632C188.627 34.8632 188.211 34.8151 188.053 34.7196C187.912 34.6241 187.817 34.4408 187.77 34.1707L186.496 27.9374H186.284C186.567 31.2173 186.709 33.4541 186.709 34.6482C186.709 35.062 185.726 35.2925 183.76 35.3407L183.759 35.3394Z" fill="#D41342"/>
</svg>
