<svg aria-hidden="true" style="position: absolute; width: 0; height: 0; overflow: hidden;" version="1.1" xmlns="http://www.w3.org/2000/svg" xmlns:xlink="http://www.w3.org/1999/xlink">
<defs>
<symbol id="icon-arrow" viewBox="0 0 35 32">
<path  d="M18.627 28.227l11.59-10.55c0.654-0.595 0.701-1.607 0.106-2.26l-11.123-12.217"></path>
<path  d="M28.8 16h-25.6"></path>
</symbol>
<symbol id="icon-Burger" viewBox="0 0 46 32">
<path  d="M0 2.286h45.714"></path>
<path  d="M0 16h45.714"></path>
<path  d="M0 29.714h45.714"></path>
</symbol>
<symbol id="icon-close" viewBox="0 0 32 32">
<path  d="M2.519 2l26.963 28"></path>
<path  d="M2 29.481l28-26.963"></path>
</symbol>
<symbol id="icon-Logo" viewBox="0 0 127 32">
<path  d="M15.806 32c8.729 0 15.806-7.164 15.806-16s-7.077-16-15.806-16c-8.729 0-15.806 7.164-15.806 16s7.077 16 15.806 16z"></path>
<path  d="M8.408 14.779h14.798v-0.606c0-1.497-0.216-2.861-0.65-4.035-1.874 1.404-4.261 2.136-6.637 2.14-2.447 0.004-4.894-0.761-6.781-2.353-0.489 1.221-0.732 2.66-0.732 4.248v0.606h0.002v0zM21.705 8.478c-0.147-0.213-0.306-0.415-0.474-0.606-1.202-1.356-3.004-2.153-5.425-2.153s-4.222 0.796-5.425 2.153c-0.116 0.132-0.227 0.269-0.333 0.41 1.572 1.458 3.716 2.158 5.872 2.155 2.099-0.004 4.199-0.675 5.785-1.958h-0zM21.123 28.131v2.94c-0.593 0.215-1.202 0.395-1.826 0.537v-3.478h-6.827v3.511c-0.624-0.135-1.234-0.308-1.826-0.515v-2.994h-0.15c-1.076 0-2.054-0.445-2.762-1.161v-0.004c-0.708-0.717-1.147-1.706-1.147-2.794v-4.226c-0.611-0.057-1.162-0.333-1.572-0.748-0.463-0.469-0.75-1.115-0.75-1.828 0-0.712 0.287-1.356 0.75-1.825l0.004-0.004c0.412-0.415 0.961-0.691 1.568-0.749v-0.617c0-3.048 0.805-5.679 2.445-7.529 1.55-1.749 3.803-2.776 6.781-2.776 2.976 0 5.231 1.027 6.781 2.776 1.64 1.851 2.445 4.482 2.445 7.529v0.617c0.611 0.057 1.162 0.334 1.572 0.749 0.463 0.469 0.751 1.115 0.751 1.829 0 0.71-0.287 1.354-0.751 1.825l-0.004 0.004c-0.412 0.417-0.961 0.691-1.569 0.748v4.226c0 1.089-0.439 2.079-1.147 2.796s-1.686 1.161-2.762 1.161h-0.004v-0.001zM23.206 19.957h-1.457v1.669c0 0.821-0.331 1.566-0.864 2.105s-1.27 0.875-2.079 0.875c-0.811 0-1.547-0.336-2.079-0.875s-0.864-1.286-0.864-2.105v-1.669h-7.453v4.215c0 0.58 0.234 1.108 0.611 1.492l0.002-0.002c0.377 0.382 0.899 0.621 1.472 0.621h10.63c0.571 0 1.093-0.237 1.471-0.621 0.377-0.381 0.613-0.91 0.613-1.49v-4.215h-0.004zM6.6 16.639c-0.443 0-0.734 0.385-0.734 0.73 0 0.341 0.278 0.739 0.725 0.739h11.095v3.518c0 0.31 0.126 0.593 0.33 0.799s0.481 0.333 0.789 0.333c0.306 0 0.586-0.128 0.789-0.333s0.33-0.487 0.33-0.799v-3.518h4.881c0.282 0 0.727-0.222 0.727-0.739-0.002-0.506-0.456-0.73-0.727-0.73h-18.204z"></path>
<path  d="M49.636 22.251c0 0.112-0.307 0.204-0.921 0.275-0.614 0.061-1.233 0.092-1.857 0.092-0.614 0-1.007-0.026-1.178-0.076-0.171-0.061-0.257-0.158-0.257-0.29v-9.507c0-0.224 0.292-0.443 0.876-0.657 0.584-0.224 1.238-0.336 1.963-0.336 0.644 0 1.067 0.137 1.268 0.412 0.070 0.102 0.106 0.204 0.106 0.306v9.782l0-0zM59.018 22.51c-0.403 0.092-0.815 0.153-1.238 0.183-0.413 0.041-0.82 0.061-1.223 0.061-0.392 0-0.7-0.010-0.921-0.031-0.211-0.020-0.493-0.071-0.846-0.153s-0.675-0.194-0.967-0.336c-0.292-0.143-0.604-0.351-0.936-0.627-0.322-0.275-0.594-0.601-0.815-0.978-0.513-0.876-0.77-2.007-0.77-3.393 0-0.927 0.141-1.748 0.423-2.461 0.292-0.713 0.639-1.263 1.042-1.651 0.413-0.387 0.881-0.698 1.404-0.932 0.846-0.387 1.696-0.581 2.552-0.581 1.228 0 2.109 0.102 2.642 0.306 0.241 0.092 0.458 0.234 0.649 0.428s0.287 0.474 0.287 0.841c0 0.367-0.091 0.831-0.272 1.391-0.171 0.56-0.423 0.841-0.755 0.841-0.101 0-0.473-0.081-1.117-0.245s-1.082-0.244-1.314-0.244c-0.352 0-0.655 0.199-0.906 0.596-0.241 0.397-0.362 0.963-0.362 1.697s0.106 1.304 0.317 1.712c0.221 0.407 0.508 0.611 0.861 0.611 0.252 0 0.704-0.102 1.359-0.306 0.664-0.214 1.052-0.321 1.163-0.321 0.312 0 0.554 0.29 0.725 0.871 0.181 0.581 0.272 1.049 0.272 1.406s-0.111 0.642-0.332 0.856c-0.211 0.204-0.519 0.356-0.921 0.458h0zM69.621 22.617h-6.402c-0.493 0-0.825-0.036-0.996-0.107s-0.257-0.183-0.257-0.336v-9.675c0-0.265 0.116-0.453 0.347-0.566 0.241-0.112 0.669-0.168 1.284-0.168h6.069c0.211 0 0.317 0.356 0.317 1.070 0 0.703-0.045 1.243-0.136 1.62-0.090 0.367-0.211 0.55-0.362 0.55-0.655 0-1.756-0.066-3.306-0.199v1.024c1.489-0.061 2.461-0.092 2.913-0.092 0.272 0 0.408 0.321 0.408 0.963s-0.056 1.131-0.166 1.467c-0.1 0.326-0.242 0.489-0.423 0.489l-2.733-0.061v0.978c1.752-0.132 2.959-0.199 3.624-0.199 0.212 0 0.317 0.356 0.317 1.070s-0.045 1.253-0.136 1.62-0.211 0.55-0.362 0.55l0.001-0zM79.35 22.51c-0.403 0.092-0.815 0.153-1.238 0.183-0.413 0.041-0.82 0.061-1.223 0.061-0.392 0-0.7-0.010-0.921-0.031-0.211-0.020-0.493-0.071-0.845-0.153s-0.675-0.194-0.966-0.336c-0.292-0.143-0.604-0.351-0.936-0.627-0.322-0.275-0.594-0.601-0.815-0.978-0.513-0.876-0.77-2.007-0.77-3.393 0-0.927 0.141-1.748 0.423-2.461 0.292-0.713 0.639-1.263 1.042-1.651 0.413-0.387 0.881-0.698 1.404-0.932 0.845-0.387 1.696-0.581 2.552-0.581 1.228 0 2.109 0.102 2.642 0.306 0.241 0.092 0.458 0.234 0.65 0.428s0.287 0.474 0.287 0.841c0 0.367-0.090 0.831-0.272 1.391-0.171 0.56-0.423 0.841-0.755 0.841-0.1 0-0.473-0.081-1.117-0.245s-1.082-0.244-1.314-0.244c-0.352 0-0.654 0.199-0.906 0.596-0.242 0.397-0.362 0.963-0.362 1.697s0.106 1.304 0.317 1.712c0.221 0.407 0.509 0.611 0.861 0.611 0.252 0 0.705-0.102 1.359-0.306 0.664-0.214 1.052-0.321 1.163-0.321 0.312 0 0.554 0.29 0.724 0.871 0.181 0.581 0.272 1.049 0.272 1.406s-0.111 0.642-0.332 0.856c-0.211 0.204-0.518 0.356-0.921 0.458h-0.001zM86.525 22.174c0 0.132-0.307 0.239-0.921 0.321s-1.233 0.122-1.857 0.122c-0.614 0-1.011-0.036-1.192-0.107-0.172-0.071-0.257-0.183-0.257-0.336v-9.828c0-0.265 0.328-0.453 0.982-0.565 0.664-0.112 1.5-0.168 2.506-0.168s1.656 0.005 1.948 0.015c0.302 0 0.655 0.015 1.057 0.046s0.719 0.081 0.951 0.153c0.241 0.071 0.503 0.163 0.785 0.275 0.292 0.112 0.518 0.26 0.68 0.443 0.161 0.173 0.317 0.382 0.468 0.627 0.272 0.438 0.408 1.065 0.408 1.88 0 0.805-0.136 1.488-0.408 2.048-0.262 0.55-0.614 0.968-1.057 1.253 1.158 1.844 1.736 3.016 1.736 3.515s-0.991 0.749-2.974 0.749c-0.574 0-0.972-0.026-1.193-0.076s-0.362-0.163-0.423-0.336l-0.981-3.149-0.257-0.015v3.134zM86.525 16.687h0.392c0.584 0 0.876-0.458 0.876-1.376 0-0.469-0.081-0.8-0.242-0.993-0.15-0.194-0.327-0.29-0.528-0.29h-0.499v2.659zM101.365 22.617h-6.402c-0.493 0-0.826-0.036-0.996-0.107s-0.257-0.183-0.257-0.336v-9.675c0-0.265 0.116-0.453 0.348-0.566 0.241-0.112 0.669-0.168 1.284-0.168h6.069c0.211 0 0.317 0.356 0.317 1.070 0 0.703-0.045 1.243-0.136 1.62-0.090 0.367-0.211 0.55-0.362 0.55-0.654 0-1.756-0.066-3.307-0.199v1.024c1.49-0.061 2.461-0.092 2.915-0.092 0.271 0 0.408 0.321 0.408 0.963s-0.056 1.131-0.166 1.467c-0.1 0.326-0.241 0.489-0.422 0.489l-2.733-0.061v0.978c1.752-0.132 2.96-0.199 3.624-0.199 0.211 0 0.317 0.356 0.317 1.070s-0.045 1.253-0.136 1.62c-0.091 0.367-0.211 0.55-0.362 0.55v-0zM107.697 21.838c-0.020 0.295-0.176 0.499-0.468 0.611-0.282 0.112-0.795 0.168-1.54 0.168s-1.368-0.066-1.872-0.199c-0.493-0.142-0.74-0.321-0.74-0.535 0-0.245 0.448-1.804 1.344-4.677 0.895-2.883 1.409-4.544 1.54-4.983 0.050-0.132 0.452-0.239 1.208-0.321 0.765-0.092 1.58-0.138 2.446-0.138 0.876 0 1.359 0.153 1.45 0.458 1.903 6.399 2.854 9.649 2.854 9.751s-0.061 0.204-0.181 0.306c-0.282 0.224-0.841 0.336-1.676 0.336-1.782 0-2.693-0.214-2.733-0.642l-0.106-0.994h-1.45l-0.076 0.856v0zM108.905 18.078l-0.227-2.751h-0.332l-0.257 2.751h0.816zM117.606 22.617c-0.252 0-0.619 0-1.102 0-0.473 0-0.796-0.036-0.966-0.107s-0.257-0.183-0.257-0.336v-9.644c0-0.234 0.307-0.418 0.921-0.55 0.624-0.143 1.288-0.214 1.993-0.214s1.208 0.092 1.51 0.275c0.301 0.183 0.478 0.377 0.528 0.581l1.027 4.035h0.136l0.966-3.851c0.070-0.275 0.397-0.514 0.981-0.718 0.594-0.214 1.244-0.321 1.948-0.321s1.222 0.056 1.555 0.168c0.343 0.112 0.514 0.255 0.514 0.428v9.812c0 0.132-0.287 0.239-0.86 0.321s-1.274 0.122-2.099 0.122-1.238-0.148-1.238-0.443c0-0.805 0.086-2.237 0.257-4.295h-0.136l-0.785 3.989c-0.030 0.153-0.156 0.265-0.377 0.336-0.211 0.072-0.533 0.107-0.966 0.107s-0.7-0.031-0.801-0.092c-0.090-0.061-0.151-0.178-0.181-0.351l-0.815-3.989h-0.136c0.181 2.099 0.272 3.531 0.272 4.295 0 0.265-0.629 0.412-1.887 0.443l-0.001-0.001z"></path>
</symbol>
<symbol id="icon-Vector-cat" viewBox="0 0 32 32">
<path d="M16 0c-8.788 0-16 7.212-16 16 0 7.499 5.262 14.312 12.25 16v-5.293c-0.692 0.152-1.33 0.156-2.034-0.052-0.946-0.279-1.714-0.909-2.284-1.869-0.364-0.613-1.008-1.278-1.68-1.23l-0.165-1.868c1.453-0.124 2.711 0.886 3.457 2.14 0.332 0.558 0.713 0.884 1.203 1.029 0.473 0.14 0.982 0.072 1.574-0.137 0.149-1.186 0.692-1.63 1.102-2.255v-0.001c-4.167-0.622-5.828-2.832-6.488-4.578-0.874-2.317-0.405-5.212 1.14-7.041 0.030-0.036 0.084-0.129 0.063-0.194-0.708-2.139 0.155-3.909 0.187-4.097 0.817 0.242 0.95-0.243 3.551 1.337l0.449 0.27c0.188 0.112 0.129 0.048 0.317 0.034 1.086-0.295 2.23-0.458 3.358-0.472 1.136 0.015 2.273 0.178 3.404 0.484l0.145 0.015c-0.013-0.002 0.040-0.009 0.127-0.062 3.248-1.968 3.132-1.324 4.003-1.608 0.032 0.188 0.883 1.987 0.182 4.099-0.095 0.291 2.816 2.956 1.203 7.235-0.659 1.746-2.32 3.957-6.487 4.578v0.001c0.534 0.814 1.176 1.247 1.173 2.927v6.608c6.988-1.688 12.25-8.501 12.25-16 0-8.788-7.212-16-16-16v0z"></path>
</symbol>
<symbol id="icon-Vector-facebook" viewBox="0 0 16 32">
<path d="M14.143 15.972h-4.034v14.865h-6.112v-14.865h-2.907v-5.224h2.907v-3.381c0-2.418 1.142-6.203 6.166-6.203l4.527 0.019v5.071h-3.285c-0.539 0-1.296 0.271-1.296 1.424v3.075h4.567l-0.534 5.219z"></path>
</symbol>
<symbol id="icon-vector-telegram" viewBox="0 0 44 32">
<path d="M17.343 21.048l-0.675 8.86c0.966 0 1.384-0.387 1.885-0.852l4.527-4.038 9.381 6.412c1.72 0.895 2.933 0.424 3.397-1.477l6.157-26.929 0.002-0.002c0.546-2.374-0.92-3.302-2.596-2.72l-36.194 12.933c-2.47 0.895-2.433 2.18-0.42 2.762l9.253 2.686 21.494-12.552c1.011-0.625 1.931-0.279 1.175 0.346l-17.386 14.57z"></path>
</symbol>
</defs>
</svg>
